<svg width="174" height="200" viewBox="0 0 174 200" fill="none" xmlns="http://www.w3.org/2000/svg">
<mask id="mask0_1117_12" style="mask-type:luminance" maskUnits="userSpaceOnUse" x="0" y="0" width="174" height="200">
<path d="M0 0H174V200H0V0Z" fill="white"/>
</mask>
<g mask="url(#mask0_1117_12)">
<path fill-rule="evenodd" clip-rule="evenodd" d="M64.64 11.3746C52.7333 17.5786 42.9893 22.8226 42.9947 23.0359C43 23.5879 71.568 38.0573 72.5827 38.0213C73.0467 38.0053 76.3907 36.4693 80.0213 34.5986L86.62 31.2079L93.8227 34.9119L101.031 38.6146L112.828 33.3119C130.609 25.3226 132.459 24.4479 132.167 24.1519C131.787 23.7599 125.407 20.3386 108.104 11.2293C99.74 6.8226 91.624 2.50526 90.068 1.63593C88.5107 0.759929 87.0213 0.057266 86.7613 0.073266C86.5 0.0825993 76.548 5.17193 64.6413 11.3746H64.64ZM12.4173 38.4159L0.0213318 44.8173V72.9173C0.0213318 88.3706 0.188002 101.016 0.385335 101.016C0.582669 101.016 6.68267 98.3693 13.9373 95.1399L27.124 89.2653V59.6519L33.5733 63.1613C38.536 65.8639 43.5053 68.5613 48.48 71.2546L56.9427 75.8386L60.708 74.1359C63.0706 73.0648 65.4284 71.983 67.7813 70.8906C69.5987 70.0466 74.0573 68.0373 77.6973 66.4266C81.3333 64.8133 84.6973 63.1933 85.172 62.8226C85.8067 62.3333 78.0787 58.0626 56.584 47.0266C40.38 38.7026 26.604 31.9213 25.9693 31.9533C25.3333 31.9893 19.2347 34.8959 12.416 38.4159H12.4173ZM134.401 40.2133C125.959 44.0266 119.047 47.2973 119.041 47.4799C119.031 47.6666 123.636 50.3999 129.265 53.5626C134.896 56.7186 139.505 59.4693 139.505 59.6773C139.505 59.8853 134.521 62.2973 128.432 65.0413C117.027 70.1865 105.625 75.3358 94.224 80.4893L51.584 99.7653L30.0987 109.479C8.19201 119.396 2.172 122.145 1.344 122.62C0.510671 123.093 0.322671 125.86 0.177338 139.724L0 156.265L22.1667 167.557L37.536 160.62C45.9893 156.807 52.9067 153.484 52.9067 153.24C52.9067 153 51.344 151.979 49.4373 150.979C47.5267 149.979 43.584 147.76 40.6773 146.052C37.7707 144.344 34.8693 142.776 34.2293 142.568C33.5933 142.364 33.0827 142 33.0933 141.765C33.104 141.525 39.8747 138.312 48.1307 134.619C64.1773 127.448 76.4533 121.917 102.817 109.995C114.604 104.667 126.396 99.3386 138.183 94.0213C148.543 89.3439 160.588 83.8799 164.953 81.8799L172.887 78.2453L173.063 61.5159L173.24 44.7919L162 39.0213C155.813 35.8479 150.531 33.2613 150.249 33.2653C149.973 33.2759 142.844 36.4013 134.401 40.2133ZM169.875 100.563C167.467 101.719 165.043 102.84 162.604 103.927C159.304 105.399 156.011 106.885 152.724 108.385L147.104 110.948L146.979 125.636C146.907 133.708 146.609 140.281 146.317 140.24C145.651 140.14 135.12 134.74 124.536 129.067C116.896 124.973 116.412 124.813 114.62 125.697C113.579 126.213 107.375 128.995 100.833 131.885C94.2867 134.771 88.7187 137.323 88.4587 137.552C88.1973 137.781 101.369 144.921 117.729 153.417L147.473 168.864L160.183 162.291C167.167 158.677 173.109 155.38 173.385 154.964C174 154.031 173.948 98.9639 173.328 99.0359C173.088 99.0626 171.531 99.7506 169.875 100.563ZM99.5107 165.197C97.3067 166.145 95.104 167.093 92.9013 168.047C86.2507 170.921 87.552 171.02 79.6347 167.079C74.364 164.459 72.0933 163.645 71.1093 164.041C70.3693 164.333 64 167.197 56.9587 170.407C49.9173 173.609 43.912 176.233 43.6093 176.233C40.656 176.233 45.568 179.167 64.5267 188.729L86.7547 199.943L96.104 195.323C101.251 192.787 111.624 187.697 119.167 184.021C126.703 180.344 132.776 177.24 132.661 177.125C132.547 177.011 126.229 173.765 118.625 169.917L104.797 162.921L99.5107 165.197Z" fill="white"/>
</g>
</svg>
