<svg width="800" height="800" viewBox="0 0 800 800" fill="none" xmlns="http://www.w3.org/2000/svg">
<g clip-path="url(#clip0_1118_12)">
<path d="M190.892 609.752L390.894 796.42C396.026 801.194 403.961 801.194 409.094 796.42L609.095 609.752C611.789 607.231 613.336 603.698 613.336 600.005L613.336 386.67C613.336 381.283 610.083 376.417 605.095 374.35C600.109 372.283 594.389 373.429 590.575 377.244L400 567.819L209.425 377.244C206.866 374.697 203.452 373.337 199.998 373.337C198.278 373.337 196.545 373.67 194.892 374.35C189.905 376.417 186.665 381.283 186.665 386.67L186.665 600.005C186.665 603.698 188.198 607.231 190.892 609.752Z" fill="url(#paint0_linear_1118_12)"/>
<path d="M390.894 423.083C396.026 427.856 403.961 427.856 409.094 423.083L609.095 236.414C611.789 233.894 613.336 230.361 613.336 226.667L613.336 13.3329C613.336 7.94694 610.083 3.07975 605.095 1.01254C600.109 -1.0406 594.389 0.0797081 590.575 3.9063L400 194.481L209.425 3.90627C206.866 1.35937 203.452 -1.44173e-05 199.998 -1.47192e-05C198.278 -1.48696e-05 196.545 0.332816 194.892 1.01251C189.905 3.07971 186.665 7.94534 186.665 13.3329L186.665 226.669C186.665 230.363 188.198 233.896 190.892 236.416L390.894 423.083Z" fill="url(#paint1_linear_1118_12)"/>
</g>
<defs>
<linearGradient id="paint0_linear_1118_12" x1="400.001" y1="800" x2="400.001" y2="373.334" gradientUnits="userSpaceOnUse">
<stop stop-color="#723FA4"/>
<stop offset="1" stop-color="#723FA4" stop-opacity="0"/>
</linearGradient>
<linearGradient id="paint1_linear_1118_12" x1="400.001" y1="426.663" x2="400.001" y2="-7.96855e-05" gradientUnits="userSpaceOnUse">
<stop stop-color="#723FA4"/>
<stop offset="1" stop-color="#723FA4" stop-opacity="0"/>
</linearGradient>
<clipPath id="clip0_1118_12">
<rect width="800" height="800" fill="white" transform="translate(800 800) rotate(-180)"/>
</clipPath>
</defs>
</svg>
