<svg width="200" height="200" viewBox="0 0 200 200" fill="none" xmlns="http://www.w3.org/2000/svg">
<mask id="mask0_1117_18" style="mask-type:luminance" maskUnits="userSpaceOnUse" x="0" y="0" width="196" height="157">
<path d="M0 0H195.333V156.667H0V0Z" fill="white"/>
</mask>
<g mask="url(#mask0_1117_18)">
<path d="M41.5679 95.224C41.5636 93.543 42.0623 91.8992 43 90.504C43.312 90.0413 43.6666 89.6093 44.0626 89.2187C45.2522 88.0295 46.7709 87.2242 48.4226 86.9067C48.9693 86.7973 49.5213 86.7453 50.0826 86.7493L64.1973 86.7973C65.3129 86.7951 66.4178 87.0144 67.4479 87.4427C68.4788 87.8642 69.414 88.4896 70.1973 89.2813C70.5933 89.672 70.9479 90.104 71.2546 90.568C71.8762 91.4926 72.3069 92.532 72.5213 93.6253C72.6306 94.172 72.688 94.724 72.688 95.2813V148.667C74.276 148.193 76.3173 147.693 78.552 147.167C80.1037 146.806 81.4865 145.928 82.4733 144.677C82.9693 144.052 83.3493 143.36 83.6093 142.609C83.8703 141.863 84.0042 141.078 84.0053 140.287V74.0667C84.003 72.9511 84.2224 71.8461 84.6506 70.816C84.864 70.3013 85.1253 69.8107 85.432 69.348C85.7453 68.884 86.0933 68.4573 86.4893 68.0613C87.6797 66.8799 89.1897 66.0725 90.8333 65.7387C91.38 65.6293 91.932 65.5773 92.4893 65.5773H106.636C108.316 65.5732 109.96 66.072 111.355 67.0093C111.817 67.316 112.245 67.6707 112.635 68.0613C113.031 68.4573 113.385 68.884 113.693 69.348C114.317 70.2734 114.747 71.3151 114.959 72.4107C115.068 72.952 115.125 73.504 115.125 74.0613V135.525C115.125 135.525 118.667 134.092 122.115 132.635C123.396 132.091 124.49 131.184 125.261 130.025C125.645 129.447 125.937 128.821 126.136 128.155C126.337 127.493 126.44 126.805 126.443 126.113V52.8427C126.441 51.7289 126.66 50.6258 127.088 49.5973C127.297 49.0813 127.563 48.592 127.869 48.1293C128.492 47.2038 129.288 46.4078 130.213 45.7853C131.14 45.1675 132.179 44.7372 133.271 44.5187C133.817 44.4107 134.369 44.3587 134.927 44.3587H149.073C150.188 44.3566 151.293 44.5759 152.323 45.004C153.353 45.4278 154.288 46.0529 155.073 46.8427C155.469 47.2387 155.823 47.6653 156.131 48.1293C156.753 49.0537 157.183 50.0932 157.397 51.1867C157.504 51.7333 157.563 52.2853 157.563 52.8427V113.181C169.823 104.291 182.256 93.5973 192.115 80.748C192.833 79.8107 193.421 78.8053 193.891 77.728C194.354 76.6521 194.684 75.5238 194.875 74.368C195.061 73.208 195.109 72.04 195.011 70.868C194.909 69.7025 194.665 68.5536 194.287 67.4467C192.631 62.6195 190.606 57.9269 188.229 53.4107C187.045 51.1518 185.773 48.94 184.416 46.78C183.061 44.6189 181.623 42.5115 180.104 40.4627C172.495 30.183 162.982 21.4605 152.083 14.7693C149.907 13.436 147.683 12.1867 145.412 11.0253C143.143 9.86056 140.83 8.78332 138.479 7.796C133.772 5.82473 128.921 4.21561 123.969 2.98267C121.495 2.36722 118.998 1.84772 116.484 1.42534C113.968 0.998495 111.437 0.670245 108.896 0.441338C106.357 0.211676 103.809 0.0782434 101.26 0.0413341C45.8173 -0.705333 -0.0053838 44.556 -5.04649e-05 100.009C-0.0324558 108.744 1.09016 117.444 3.33861 125.884C5.57413 134.328 8.91549 142.44 13.276 150.009C14.4791 152.094 16.2565 153.788 18.3959 154.889C19.4626 155.441 20.5826 155.836 21.7653 156.067C22.9394 156.301 24.1412 156.363 25.3333 156.253C28.0053 156.02 31.3386 155.687 35.3026 155.223C36.5896 155.077 37.8118 154.581 38.8353 153.787C39.8588 152.993 40.6441 151.933 41.1053 150.723C41.4119 149.909 41.5679 149.072 41.5679 148.207V95.224Z" fill="white"/>
</g>
<mask id="mask1_1117_18" style="mask-type:luminance" maskUnits="userSpaceOnUse" x="40" y="92" width="160" height="108">
<path d="M40.6667 92.6666H200V200H40.6667V92.6666Z" fill="white"/>
</mask>
<g mask="url(#mask1_1117_18)">
<path d="M41.26 180.839C44.9636 183.537 48.8498 185.975 52.8906 188.136C56.9304 190.298 61.1135 192.18 65.4106 193.771C74.0192 196.947 83.0234 198.926 92.1707 199.651C96.744 200.016 101.323 200.063 105.901 199.792C115.062 199.257 124.105 197.462 132.776 194.459C137.103 192.956 141.323 191.16 145.407 189.084C149.49 187.003 153.426 184.645 157.188 182.027C160.947 179.405 164.523 176.53 167.891 173.421C174.623 167.189 180.471 160.064 185.271 152.245C187.666 148.337 189.79 144.268 191.625 140.068C195.304 131.663 197.805 122.791 199.057 113.703C199.688 109.156 200 104.588 200 99.9999C200 97.7026 199.891 95.4266 199.74 93.1613C163.22 147.625 95.792 173.088 41.2546 180.844" fill="white"/>
</g>
</svg>
