<svg width="200" height="200" viewBox="0 0 200 200" fill="none" xmlns="http://www.w3.org/2000/svg">
<path d="M140.693 61.4174L123.672 141.448C122.828 145.407 118.115 147.177 114.828 144.817L74.308 114.657L119.041 74.2187C119.041 74.2187 122.073 71.776 121.228 71.0214C120.303 70.0934 117.015 72.1147 115.251 73.292C113.563 74.4734 60.4906 108.005 60.4906 108.005L33.6973 99.5787C30.6666 98.6507 30.6667 94.5254 35.0467 92.672L133.953 54.5934C138.161 52.484 141.62 57.3694 140.693 61.4174Z" fill="white"/>
<mask id="mask0_1116_3" style="mask-type:luminance" maskUnits="userSpaceOnUse" x="0" y="0" width="200" height="200">
<path d="M0 0H200V200H0V0Z" fill="white"/>
</mask>
<g mask="url(#mask0_1116_3)">
<path d="M100 200C44.9013 200 0 155.183 0 100C0 44.9013 44.9013 0 100 0C155.183 0 200 44.9013 200 100C200 155.183 155.183 200 100 200ZM100 5.47334C47.8533 5.47334 5.47334 47.8547 5.47334 100C5.47334 152.147 47.8547 194.527 100 194.527C152.147 194.527 194.527 152.145 194.527 100C194.527 47.8533 152.145 5.47334 100 5.47334Z" fill="white"/>
</g>
</svg>
