<svg width="200" height="200" viewBox="0 0 200 200" fill="none" xmlns="http://www.w3.org/2000/svg">
<path d="M143.973 78.0107C143.973 78.0107 145.495 109.943 121.147 129.656C84.8334 159.14 45.6614 135.213 45.6614 135.213C45.6614 135.213 55.1814 135.387 63.604 133.109C72.0307 130.833 78.0107 125.443 78.0107 125.443C78.0107 125.443 68.828 123.505 64.1094 120.052C59.3067 116.599 57.5414 109.943 57.5414 109.943C57.5414 109.943 60.656 110.193 62.6774 110.193C64.704 110.109 67.1454 109.183 67.1454 109.183C67.1454 109.183 60.572 108.427 54.4214 101.516C49.62 96.1253 49.9587 87.1093 49.9587 87.1093C49.9587 87.1093 52.8227 88.7973 54.4214 89.2187C55.9374 89.636 58.8854 89.636 58.8854 89.636C58.8854 89.636 53.1614 86.1827 50.5467 77.4227C48.0214 68.5787 52.9067 59.6453 52.9067 59.6453C52.9067 59.6453 61.3334 69.9213 74.0534 76.5787C86.7707 83.2347 98.7334 82.984 98.7334 82.984C98.7334 82.984 96.9694 77.6773 100 69.9213C103.031 62.088 109.943 56.5307 120.387 55.688C130.833 54.844 137.489 62.7653 137.489 62.7653C137.489 62.7653 140.693 62.172 144.396 60.828C148.104 59.4787 151.729 57.792 151.729 57.792C151.729 57.792 150.463 61.7507 147.937 64.8693C145.407 67.984 142.541 69.8387 142.541 69.8387C142.541 69.8387 145.828 69.588 149.115 68.6613C152.401 67.7347 154.255 66.808 154.255 66.808C150.631 73.208 143.975 78.0107 143.975 78.0107H143.973Z" fill="white"/>
<mask id="mask0_1117_3" style="mask-type:luminance" maskUnits="userSpaceOnUse" x="0" y="0" width="200" height="200">
<path d="M0 0H200V200H0V0Z" fill="white"/>
</mask>
<g mask="url(#mask0_1117_3)">
<path d="M100 200C44.9013 200 0 155.183 0 100C0 44.8173 44.9013 0 100 0C155.099 0 200 44.9013 200 100C200 155.099 155.183 200 100 200ZM100 5.47334C47.8533 5.47334 5.47334 47.8547 5.47334 100C5.47334 152.147 47.8547 194.527 100 194.527C152.147 194.527 194.527 152.145 194.527 100C194.527 47.8533 152.145 5.47334 100 5.47334Z" fill="white"/>
</g>
</svg>
